<svg width="48" height="48" viewBox="0 0 48 48" fill="none" xmlns="http://www.w3.org/2000/svg">
<path fill-rule="evenodd" clip-rule="evenodd" d="M24 4C12.9543 4 4 12.9543 4 24C4 35.0457 12.9543 44 24 44C35.0457 44 44 35.0457 44 24C44 12.9543 35.0457 4 24 4ZM0 24C0 10.7452 10.7452 0 24 0C37.2548 0 48 10.7452 48 24C48 37.2548 37.2548 48 24 48C10.7452 48 0 37.2548 0 24Z" fill="#FFD700"/>
<path fill-rule="evenodd" clip-rule="evenodd" d="M18.3375 45.4667C18.1512 45.2208 18.1512 43.0306 18.3375 38.8962C16.3424 38.9667 15.082 38.8251 14.5561 38.4715C13.7672 37.9412 12.9775 36.3055 12.2766 35.1528C11.5759 34.0001 10.0207 33.8178 9.39261 33.5602C8.76455 33.3024 8.60689 32.252 11.1232 33.0464C13.6395 33.8409 13.7623 36.0042 14.5561 36.5101C15.3498 37.016 17.2477 36.7946 18.1079 36.3894C18.9682 35.9842 18.9048 34.4753 19.0582 33.8776C19.2521 33.3197 18.5686 33.1959 18.5536 33.1914C17.7137 33.1914 13.302 32.2104 12.0902 27.8422C10.8784 23.4741 12.4394 20.619 13.2721 19.3917C13.8273 18.5734 13.7782 16.8296 13.1248 14.16C15.4971 13.85 17.3278 14.6134 18.6169 16.4504C18.6181 16.461 20.3069 15.4236 22.976 15.4236C25.6449 15.4236 26.5918 16.2686 27.3226 16.4504C28.0533 16.6323 28.6377 13.2349 33.1508 14.16C32.2086 16.0534 31.4196 18.4195 32.0218 19.3917C32.6241 20.3638 34.9878 23.4551 33.5358 27.8422C32.5679 30.767 30.665 32.55 27.8273 33.1914C27.502 33.2975 27.3392 33.4688 27.3392 33.7051C27.3392 34.0597 27.7792 34.0983 28.4129 35.7591C28.8354 36.8662 28.866 40.0284 28.5045 45.2456C27.5887 45.4839 26.8763 45.6439 26.3672 45.7257C25.4646 45.8707 24.4845 45.9521 23.5216 45.9835C22.5586 46.0149 22.2242 46.0113 20.8929 45.8846C20.0054 45.8002 19.1536 45.6608 18.3375 45.4667Z" fill="#FFD700"/>
</svg>
