<svg width="48" height="48" viewBox="0 0 48 48" fill="none" xmlns="http://www.w3.org/2000/svg">
<path d="M11.3885 16.3043C11.9965 12.4461 13.0479 8.97058 14.4413 6.12865C15.6979 3.56341 17.294 1.40157 19.1636 0C14.5266 0.977373 10.2758 3.33125 6.94488 6.76611C3.61399 10.201 1.35149 14.5637 0.441442 19.3065C1.91293 18.6031 3.44447 18.0387 5.01685 17.6205C7.11241 17.0487 9.24025 16.6083 11.3885 16.3017M0.0512905 25.6446C-0.0170968 24.5493 -0.0170968 23.4507 0.0512905 22.3554C0.137428 22.2933 0.228632 22.2312 0.324903 22.1692C1.51563 21.3856 3.31438 20.6331 5.64515 19.9841C7.4279 19.4993 9.23525 19.1143 11.0591 18.8307C10.7067 22.2675 10.7067 25.7325 11.0591 29.1693C9.2361 28.8856 7.42959 28.5006 5.64768 28.0159C3.31691 27.3643 1.51309 26.6144 0.324903 25.8308L0.0512905 25.6446ZM0.438909 28.696C1.34958 33.4388 3.61266 37.8012 6.944 41.2356C10.2753 44.67 14.5265 47.0233 19.1636 48C17.294 46.5984 15.6979 44.4366 14.4413 41.8713C13.0479 39.0268 11.994 35.5539 11.3885 31.6957C9.24025 31.3891 7.11241 30.9487 5.01685 30.3769C3.44377 29.9605 1.91139 29.3979 0.438909 28.696ZM28.8364 48C33.4735 47.0233 37.7247 44.67 41.056 41.2356C44.3873 37.8012 46.6504 33.4388 47.5611 28.696C46.0894 29.3977 44.5579 29.9604 42.9857 30.3769C40.8893 30.9488 38.7606 31.3892 36.6115 31.6957C36.0035 35.5539 34.9521 39.0268 33.5587 41.8713C32.3021 44.4366 30.706 46.5984 28.8364 48ZM47.9487 22.3554C48.0171 23.4507 48.0171 24.5493 47.9487 25.6446L47.6776 25.8308C46.4869 26.6144 44.6856 27.3669 42.3523 28.0159C40.7512 28.4607 38.9322 28.8486 36.9409 29.1693C37.2933 25.7325 37.2933 22.2675 36.9409 18.8307C38.9322 19.1488 40.7512 19.5393 42.3523 19.9841C44.6856 20.6331 46.4869 21.3856 47.6776 22.1692C47.7739 22.2312 47.8643 22.2933 47.9487 22.3554ZM47.5611 19.3065C46.6509 14.5633 44.388 10.2004 41.0566 6.76548C37.7252 3.3306 33.4739 0.976917 28.8364 0C30.706 1.40157 32.3021 3.56341 33.5587 6.12865C34.9521 8.97317 36.006 12.4461 36.6115 16.3043C38.7598 16.6109 40.8876 17.0513 42.9832 17.6231C44.7287 18.1067 46.2766 18.6678 47.5611 19.304M13.8763 15.9784C14.4616 12.6297 15.4015 9.6481 16.5871 7.22508C18.3732 3.57892 20.5773 1.44553 22.7991 0.879215V15.4328C19.818 15.4649 16.8401 15.6487 13.8763 15.9784ZM25.2009 15.4328V0.879215C27.4227 1.44812 29.6268 3.57892 31.4129 7.22508C32.5985 9.6481 33.5384 12.6297 34.1237 15.9784C31.1599 15.6478 28.1821 15.4657 25.2009 15.4328ZM13.5115 18.4868C16.5949 18.1193 19.695 17.9173 22.7991 17.8817V30.1183C19.6959 30.0826 16.5966 29.8806 13.514 29.5132C13.3025 27.6834 13.1976 25.8425 13.1999 24C13.1999 22.0968 13.3063 20.2504 13.5115 18.4868ZM34.4885 18.4868C31.4051 18.1193 28.305 17.9173 25.2009 17.8817V30.1183C28.305 30.0827 31.4051 29.8807 34.4885 29.5132C34.6912 27.7496 34.8001 25.9032 34.8001 24C34.8001 22.0968 34.6912 20.2504 34.4885 18.4868ZM13.8763 32.0215C16.6581 32.3396 19.6627 32.5284 22.7991 32.5646V47.1208C20.5773 46.5519 18.3732 44.4211 16.5871 40.7749C15.4015 38.3519 14.4616 35.3703 13.8763 32.0215ZM25.2009 32.5672V47.1208C27.4227 46.5519 29.6268 44.4211 31.4129 40.7749C32.5985 38.3519 33.5384 35.3703 34.1237 32.0215C31.1599 32.3513 28.182 32.5351 25.2009 32.5672Z" fill="#FFD700"/>
</svg>
